<svg id="Capa_1" data-name="Capa 1" xmlns="http://www.w3.org/2000/svg" xmlns:xlink="http://www.w3.org/1999/xlink" viewBox="0 0 201 201"><defs><style>.cls-1{fill:url(#Degradado_sin_nombre_17);}</style><linearGradient id="Degradado_sin_nombre_17" y1="100.5" x2="201" y2="100.5" gradientUnits="userSpaceOnUse"><stop offset="0" stop-color="#2e318a"/><stop offset="0.38" stop-color="#29297f"/><stop offset="1" stop-color="#1b1464"/></linearGradient></defs><title>icons</title><path class="cls-1" d="M40.14,116.71l-13,25.94H38.9V201H162.1V142.65h11.73l-13-25.94Zm4,6.48h51.1l-6.48,13H37.67Zm111.46,71.33H103.74v-22.7H97.26v22.7H45.39V142.65H92.78l4.48-9V162.1h6.48V133.68l4.48,9h47.39Zm1.24-71.33,6.48,13h-51.1l-6.48-13Zm-105,45.39H71.32v6.48H51.87Zm0,13H71.32V188H51.87Zm25.94,0h6.48V188H77.81ZM85.53,52.73l15-3.82,15,3.81,1.17-16.07,8-13.59L110.53,17l-10-12.4L90.47,17,76.4,23.06l7.95,13.59Zm9-30.44,6-7.41,6,7.41,8.82,3.82-5,8.56-.72,9.86-9.07-2.31-9.07,2.31-.72-9.86-5-8.57ZM16.27,59.34l.7,9.6,9-2.29,9,2.29.7-9.6,4.71-8L32,47.69l-6-7.46-6,7.45L11.56,51.3ZM24,53l2-2.46,2,2.46L31,54.34l-1.77,3L29,60.74l-3-.78-3.06.78-.25-3.37-1.77-3ZM166.1,68.94l9-2.29,9,2.29.7-9.6,4.71-8-8.35-3.61-6-7.46-6,7.45-8.35,3.62,4.71,8Zm7-15.94,2-2.46,2,2.46,3.09,1.34-1.77,3-.25,3.37L175.06,60l-3.05.78-.25-3.37-1.77-3ZM40.35,77.26A72.1,72.1,0,0,1,56.64,92.2l12.84,16L66.82,87A41.6,41.6,0,0,0,50.57,59l-3.1-2.33L38,75.67Zm9.34-10.53A35.13,35.13,0,0,1,60.16,86.29,78.2,78.2,0,0,0,46.3,73.5ZM134.18,87l-2.66,21.25,12.84-16a72.1,72.1,0,0,1,16.29-14.94L163,75.67l-9.5-19L150.43,59a41.62,41.62,0,0,0-16.25,28ZM154.7,73.5a78.2,78.2,0,0,0-13.86,12.79,35.13,35.13,0,0,1,10.47-19.56ZM113.47,96.64a73.28,73.28,0,0,1,17-46.84l5,4.15A66.79,66.79,0,0,0,120,96.64v13.59h-6.48Zm29.18-51.25h-6.49V38.9h6.49Zm9.72-13h-6.48V25.94h6.48ZM81.05,96.64A66.79,66.79,0,0,0,65.59,54l5-4.15a73.28,73.28,0,0,1,17,46.84v13.59H81.05ZM64.84,45.39H58.35V38.9h6.49Zm-9.73-13H48.63V25.94h6.48ZM103.74,61.6H97.26V55.11h6.48Zm-6.48,6.48h6.48v42.15H97.26ZM194.52,94H188V87.53h6.49ZM188,100.5h6.49V107H188ZM194.52,94H201v6.48h-6.48ZM188,94v6.48h-6.48V94ZM184.79,6.48h-6.48V0h6.48ZM178.31,13h6.48v6.48h-6.48Zm6.48,0V6.48h6.48V13Zm-6.48,0h-6.49V6.48h6.49ZM13,107H6.48V100.5H13Zm-6.49,6.49H13V120H6.48Zm6.49,0V107h6.48v6.49Zm-6.49,0H0V107H6.48ZM13,6.48H6.48V0H13ZM6.48,13H13v6.48H6.48ZM13,13V6.48h6.48V13ZM6.48,13H0V6.48H6.48Zm0,0"/></svg>