<svg id="Capa_1" data-name="Capa 1" xmlns="http://www.w3.org/2000/svg" viewBox="0 0 127.89 157.39"><defs><style>.cls-1{fill:#fff;}.cls-2{fill:red;}</style></defs><title>bell notification</title><path class="cls-1" d="M42.39,138.61v.12a18.66,18.66,0,1,0,37.32,0v-.12Zm0,0"/><path class="cls-1" d="M120.63,115.28,103.84,90.61V59.83a42.8,42.8,0,0,0-34.4-42V8.39a8.39,8.39,0,0,0-16.78,0v9.48a42.79,42.79,0,0,0-34.39,42V90.61L1.47,115.28a8.49,8.49,0,0,0,7,13.26H113.62a8.48,8.48,0,0,0,7-13.26Zm0,0"/><circle class="cls-2" cx="104.74" cy="45.79" r="23.15"/></svg>