<svg id="Capa_1" data-name="Capa 1" xmlns="http://www.w3.org/2000/svg" viewBox="0 0 72 72"><defs><style>.cls-1{fill:#3139a2;}.cls-2{fill:#fff;}</style></defs><title>icons</title><circle class="cls-1" cx="36" cy="36" r="36"/><path class="cls-2" d="M18.4,52h6.4V32.8H18.4ZM53.6,34.4a3.21,3.21,0,0,0-3.2-3.2H40.32l1.6-7.36v-.48a3.36,3.36,0,0,0-.64-1.76L39.52,20,29,30.56a2.68,2.68,0,0,0-1,2.24v16A3.21,3.21,0,0,0,31.19,52H45.6a3.17,3.17,0,0,0,2.88-1.92l4.8-11.36a2.72,2.72,0,0,0,.16-1.12V34.4Zm0,0"/></svg>